<svg xmlns="http://www.w3.org/2000/svg" viewBox="0 0 400.66 399.97">
  <defs>
    <style>
      .cls-1 {
        fill: #00a89e;
      }

      .cls-2 {
        fill: #96c947;
      }
    </style>
  </defs>
  <title>Asset 1</title>
  <g id="Layer_2" data-name="Layer 2">
    <g id="earth">
      <g>
        <circle class="cls-1" cx="200.68" cy="199.99" r="199.99"/>
        <path class="cls-2" d="M212.13,226l3.94-4,1.41-3.66,2.25-.28-.28-4.5,1.69-3.66-.85-9,7.89-5.35,5.63-5.35,4.5-3.94,3.67-1.69,1.4-3.38,2.54-2.25,3.09-.29,6.2-.56.28-3.1,2.25,1.13,1.69,3.1,2.54,4.22,3.37,2.25v2l2.26,1.69.28,2.54-.28,4.22v2.25l3.09.85,3.1-2,1.69-2.54,3.38,3.66v4.51l2,4.22,1.13,2.25v5.35l-1.41,3.66.28,2.26-.56,2.53,1.12,2.25,1.69,2.25,2,2.82,1.13,2V235l.84,3.09,2,3.38,2.53,1.69,2.82,2.53,2.81,1.13-.28-3.38-1.13-3.09L296,235a65.72,65.72,0,0,1-7.88-7l-1.69-3.1-.56-2.53L283.65,220l.56-5.07,1.41-4.5,1.12-3.1h2.82l.28,2.54,3.1,1.12,2,2.26.56,2.81,2.82,1.13,2,2-.57,3.38h3.67l2.81-4.51v-2l2,1.69,2.54-2.25,3.09-2.25-1.12-11-2.26-3.66L307.86,195,305,191.61l-2.25-3.1.28-3.1,2-2.25,2-1.41,2-1.13,4.5-.56,2,1.13-.28,2.81,2,.28.85-3.37,3.37-1.13,3.38-.84,3.1-2,4.51.57,2.53-3.1,3.1-4.22,2.81-3.38v-3.38l2.54-1.69.84-2.53.85-2.82v-2.82l-2.82-1.4,1.41-2.26-1.13-5.06-1.41-4-2.53-3.09.84-3.94,2.26-1.41,2.53-1.13-.28-3.1h-2.53l-3.66.29-2,.56-.56-2.82-2.53-1.12V121.5l2.53,1.4,2.54-2.53L340,119h2.53v2.54L340.8,124l2.54.28,2.53-1.12,3.38.56L351.5,126l-.56,2.54.84,2.81L354,133.6l.28,3.66-.57,2.26,1.13,2,2.53-.85,3.66-1.69-1.4-4.5L358,129.66l-2-3.38-.57-2.81,1.13-2,2.25-1.69v-3.1l3.1-.84,2.53,2.25,2.82-1.69,1.13-3.1,1.12-3.94,1.13-4.79L370.08,99,369,95.31l-3.1-5.91-3.1-2.82-2-2.81-2-2.82L360,79s-45.9-59.13-105.3-71.51-16.34-3.38-16.34-3.38L233,5.21l2,1.69-2.54.85-4.22-1.69-3.94.28h-7.32l2.53,2.25L224,10l2,.84.28,2-3.1-.28L220,10.84l-3.38-1.12-3.09-.85h-5.35L211,11.13l-4.78-.57-2.82-.84.85-2.54L202,6.62l-.84,2L198.9,9.72l1.12,2-.28,2.25,1.41,2,3.94-.84,2.25.84,3.38.28,2,2.54-3.09,1.41-2.26-.85-3.66-1.69-2.25,1.13-2,2.25-2.82,1.41L192.7,23.8l-6.47-1.13,5.63-1.41,2.25-1.41,2.53-1.12.57-2-1.13-3.1-.84-3.1,1.69-3.38-2.54-.28-7,.28-.84,2-3.94,1.41-1.69,2,2.25,1.13,2.81,1.69-1.4,2.53L179.75,17l-3.66-.28-4.22-.85-8.17.28-.28,2.26-2.82,1.12-4.5-1.12-2,2-3.38.56-3.38.84h-3.66l-5.63.57-4.79,2-4.78,2.81-2.26,1.13-3.94-.84,4.79-2.54-2-2.53L122,23l-2.25,2.54L118.65,30l-2,2.53-4.79,1.41L109.36,37l-.28,2.25-4.79.28L99.51,41l-3.66.28.28-2.81-2.82-2,4.51-.57h5.35l3.94-1.12,3.66-4,2.25-1.4-2-2.26-3.66.29-2.25,1.69-2,1.12-3.66.85-4.79.28-4.79,2S60.37,53.92,44.32,75.88L40.73,79.7l-.91,1,5.91-2,.12-.21,1.57-2.61L46,82.36l-2.25,1.13,5.35-1.69L51.36,79l1.69-2,2-4.5,1.41-2.26,2.81-2,1.13-2-.56-2.81,1.4-2,2-3.09,3.1-2L69.1,54.2l2.25-2.81L75,48.85l3.66-1.4v2.81L75.29,52.8l-3.38,1.69-1.4,2.81L68,59.55l-1.13,3.1H69.1l3.66-2.25,2-2,4.5-1.69h3.38l1.69,2.53-5.91,1.41-4.51,1.69-2.81,2.82L68,66.87l-2.53,2.26L66,71.94l-2.82.57-2.25,1.4-1.12,2.54L57.27,78.7l-2,2-6.19,3.66-3.66,2.25-3.66,2-.29-2.81-3.37,1.13-.29,2.81-2.25,1.69L35,93.9l-2.82,2.26L30.81,99l-2.54,3.1-3.94,3.66.28,2.25-1.69,2-2.25,1.41-1.13,2.53v2.82l-.28,3.1-.56,2.81-.85,2.26-1.69,2-3.09,3.09-1.41,3.66L10,137l-.84,4.51L8,144.87l-.28,2,3.94-.57,2.25-3.37,1.69-4.51,1.13-3.66,1.41-3.1,2-3.38,1.69-3.37,1.4-2.26,3.1-.28,2-3.38,2-2,2,2.82.85,3.38,3.38,2.25,1.4,2.25v2.25l-2.53,2.54-2.82,1.41.57,2.25,2.81,1.12,2-2.81L39,131.91l1.69-3.09,1.13-2.54,1.4-2.81-2.53-1.41-2.25-2.82-2-3.09v-3.94L37.56,110l2.26,2.54.84,3.66a4,4,0,0,0,2,.84l1.41.28,2.53,3.1-.28,2.82a26.07,26.07,0,0,0,.28,4.22c.28.84,2.54.84,2.54.84l3.09,1.69h2l-2-4.22-.28-2V121.5a6.21,6.21,0,0,0,2.25.84c.85,0,1.41-2,1.41-2s2.54-.56,3.38-.84a10.65,10.65,0,0,1,2.54-.29l-2,2.54-.84,3.1L59,128l.56,3.1,4.79,2.25,2.82-.28,3.94-.56,4.78-.85,3.67-.84,2.81-.28-1.13,3.38-1.4,3.37-.57,4.23-2,2.81L75,147.12l-1.69,2.25-5.07.28-5.63,1.13-4.5.28-3.95-1.13-3.37-1.4-2-1.41-3.67-.28-2.81,2.25c-1.41,1.13-1.13,3.94-1.13,3.94l-4.78.85-3.1-3.1-2.25-2-2-.85-3.1-1.4.56-3.66,1.69-3.66-5.07-1.13-2.25,2a26,26,0,0,0-2.25,2.53c-.56.85-3.94,4.23-3.94,4.23l-3.95,3.38L8,155l-2.54,2s-9.57,49-3.37,64.48l2.53,5.35,2.53-.56,2,1.4L11.66,226l3.1-.57,2,1.69.56,2.54.85,2,3.66-.28,2,1.4-.57,3.1,1.69,6.48-.56,3.37.56,3.1.85,3.66L28,255.8l2.82,3.1,1.12,3.38.85,5.06,1.12,4.51.57,4.22.28,5.63.28,3.38.28,3.1L37,292.4l2.53,4,2.26,5.06,2.81,4.23,1.13,4.22,2.53,3.94,2.82,3.1,2,3.66,2,4.79,2.25,4.22,2.54,2,5.35,2.82,3.37.56,4.23,1.13,3.94-.85,3.38-5.35,1.41-3.38,1.12-3.94-1.69-2.82,2.82-.84,2.53-.28,1.41-2-2-5.35L84.3,309l-.84-2.54,2-2.53L88,302.54l2.82-1.13,2.81-.84L97,298.32l.28-2.82-1.12-5.91-.85-7.32-2.53-3.66-1.41-4.51V271l-1.13-3.1.85-4.79.84-2.53,3.1-2.82,2.25-3.94,2.54-3.1,5.07-4.22,2.81-2.82,2.54-2.25,2.53-3.66,2.81-3.1,2.26-4.78,2.25-4.79.84-3.66,2.26-4.5v-2.82l-2.54-1.41-5.91,2-2.53.28-4,.29-2.53.84-2.53.28-3.1-2.53L97,212.16l3.1-2L97,207.94l-2.53-3.66-2.54-2.82-3.09-2.25-2-2.26-.57-3.66-2.81-2.81L81.77,188l-.57-3.38-.56-4.51L79,175.56,76.42,173l-1.69-6.19-2-5.63-.85-5.07,2-.56.85,2L77,155.85l.28-4.79L79,155.57v4.22l3.38,4.79,2,3.66.56,3.66,2.82,2.81.28,3.38v2.25l1.41,3.94,3.1,1.41L95,189.63l1.69,2.82,1.69,4.5.56,3.1,1.69,3.94,1.41,4.23,2.25.84,2.25-.56,3.95-1.69,4.22-2,2.53-1.13,4.23-2,2-1.41,3.1-1.69,2-2,3.38-.56,2.53-.84L137,191l4.51-.56v-3.1s-.28-1.41,2-1.12,1.41-3.95,1.41-3.95a23.49,23.49,0,0,0,2.81-.56c.85-.28,2.26-3.1,2.26-3.1v-2l-.85-2.53-2.82-1.69-3.66-2.53-2-3.67-.28-3.09-2.53,3.38-3.1,3.09-2.25.85h-3.66l-2,.28-3.1-.28,1.41-4.79-2.25-3.1-.29,4.23-2-.85-1.4-3.09v-3.66l-2.54-2.54-1.69-4.5v-2l2.25-1.13,4.51-.28,2,2.25.28,3.66,2.25,2.25,6.2,3.38,3.1.28,2.81-.84,3.1-.28,1.69,2.53,1.12,2,2.26.85,4.5.28,4.22,1.12,5.07-.28h2.26l3.66-.56h4.5l2.53.28,2.26,1.41,3.38,3.1.56,2,2.25,1.69,2.25.28,2.26.28s4.5,0,2.25.84a40.21,40.21,0,0,1-4.79,1.41,5.91,5.91,0,0,0,2.82,4.23l2.81.56,2.54-.56,1.12-2.26s-1.69-2.81.57-2,1.69,3.66,1.69,3.66l1.12,3.94V191l.57,4.23,2.25,5.06,1.69,3.95,1.12,3.94,2.54,4.5,1.41,2.82,1.4,7.32,2,2.53Z"/>
        <path class="cls-2" d="M220.86,220.61l-.28,2.25-1.41,4.22.56,3.38,2.54,2.53s3.66.85,4.22-.28a9.06,9.06,0,0,0,.28-3.66L224.52,226Z"/>
        <path class="cls-2" d="M108.52,299.44l3.37-.28,2.82-.28,2-2.82.85-3.09,2.25-2,2.25-2,1.41,2.82c1.12,2.53,2,4.79,2,4.79l-.28,2.53-2,1.13.28,2.81-.56,3.1-.85,3.38-1.69,3.1.85,3.37-.85,2.82-.84,2.82-1.13,2.53-4.5,1.69-3.66-2-1.69-3.38-2-4.22,1.13-2.26,1.41-3.09-1.41-4.23v-3.94Z"/>
        <polygon class="cls-2" points="305.33 256.08 307.86 256.93 311.52 257.49 313.21 259.74 314.34 262.56 316.31 262.84 319.12 265.66 321.94 267.35 324.19 268.47 326.72 270.16 326.16 272.41 325.88 274.95 328.13 274.95 328.69 277.2 331.79 279.17 331.23 283.11 330.67 285.93 328.69 287.34 325.6 286.21 321.66 283.11 319.97 279.45 318.56 275.23 316.87 273.26 314.05 268.19 310.68 264.53 308.14 260.87 305.33 258.33 305.33 256.08"/>
        <polygon class="cls-2" points="312.93 244.82 315.46 245.38 316.17 244.94 317.71 243.97 318 240.6 320.53 240.31 323.35 238.63 325.32 234.97 327.85 234.4 330.1 233.56 331.23 230.46 333.48 227.65 336.3 228.49 336.86 230.46 339.11 231.59 338.83 233.84 337.14 235.81 334.61 236.66 331.79 237.78 328.69 239.47 328.69 243.13 326.16 244.82 323.35 245.66 320.81 245.66 312.93 244.82"/>
        <polygon class="cls-2" points="335.17 220.32 336.86 217.79 337.81 216.36 339.68 213.57 335.17 220.32"/>
        <polygon class="cls-2" points="343.9 191.04 345.87 191.32 347.84 193.86 347.56 196.39 346.71 198.93 345.03 200.9 347 203.71 345.59 205.68 349.81 204.56 351.78 205.12 350.09 207.65 352.06 209.06 354.04 209.63 354.6 211.6 355.16 214.41 352.63 213.28 350.66 211.88 349.81 209.63 347.56 208.78 345.31 208.5 342.21 206.25 342.77 203.15 342.21 199.49 341.93 197.52 343.34 194.98 343.9 191.04"/>
        <path class="cls-2" d="M345.31,224l3.38-1.4a28.58,28.58,0,0,0,4.78-2.54l3.1-.56.84,4.22-1.4,2.54h-2l-.29,3.66h-3.37l-1.13-4.23Z"/>
        <path class="cls-2" d="M341.08,264.25l1.69,2h2.82l2.25-.56L351.5,264a9,9,0,0,0,3.66-2.82v-2.53l.85-2.54,4.78-2,.57,2,.28,6.2-2.25,3.09-2.26,2.26v2.25l-2.81,1.41-.57,3.94c0,2.25-3.66,2.25-3.66,2.25l-2.53-1.13-3.1-.84h-3.09l.28-2.25-1.41-5.63Z"/>
        <path class="cls-2" d="M332.92,348.43l2.25-2.81.28-3.66.28-3.94-.28-3.1.85-6.2,2.53-2.53a6.41,6.41,0,0,1,2-1.69,12.51,12.51,0,0,0,2.54-1.69,7.26,7.26,0,0,0,2.25-1.69c.56-.84,1.69-2.25,1.69-2.25,2.25-1.41,0-.56,2.25-1.41a24.09,24.09,0,0,0,3.66-1.69l2.25-1.4,3.1-5.92,2.53-3.09c1.69-2,2.54-2.82,3.1-3.66a26.65,26.65,0,0,1,2.25-2.54l2-2.53,2,.84,2.25-3.38,1.41-3.38,2-1.69,2-1.12,2.53-.85S354.6,338,332.92,348.43Z"/>
        <polygon class="cls-2" points="332.36 288.74 336.3 288.74 341.93 289.02 345.59 288.74 348.69 289.02 350.66 289.59 350.38 291.56 344.46 291.84 340.52 291.56 335.73 291 332.36 288.74"/>
        <path class="cls-2" d="M354,288.74l3.37-.84s0,2.53-.84,2.81a22.21,22.21,0,0,1-2.82.57Z"/>
        <path class="cls-2" d="M362.76,285.65l2-1.13.56,1.41Z"/>
        <path class="cls-1" d="M114.52,100.47l2.63-2.62,3.75-3.38,2.26-3a5.79,5.79,0,0,1,2.62-1.12h1.13l4.88-1.13,2.63.38,1.13,4.5-2.63,1.5h-3l-3,1.88.75,4.51,2.63,1.87,1.13,2.63,2.62.38,3.76,2.25-4.13,3H131l1.13,3.38,2.25,5.26-.38,2.62s-1.5,1.88-2.62,1.88-7.14-.75-7.14-.75l-6-1.5,2.62-4.88,1.51-4.51-1.51-3-3-4.5Z"/>
        <path class="cls-1" d="M72.85,99,77,98.22l1.5,2.63,4.88,2.63V98.22l2.26-2.63C89,94.09,92.37,93,92.37,93l3-1.13-2.26,4.88-3,1.5-2.25,3.38,5.63,1.88a60,60,0,0,1,5.63,4.88l-2.25,4.13L89.75,114l-5.26.37H78.11l-3.76.38L71.73,117l-6.39-1.5-1.12-5.26s2.25-3.75,3-4.88,1.88-3,1.88-3Z"/>
      </g>
    </g>
  </g>
</svg>
